<mxfile host="app.diagrams.net" modified="2024-01-18T15:57:26.217Z" agent="Mozilla/5.0 (Macintosh; Intel Mac OS X 10_15_7) AppleWebKit/537.36 (KHTML, like Gecko) Chrome/120.0.0.0 Safari/537.36" etag="oLcTR__0LEZ3VXQ31Mgz" version="22.1.18" type="github">
  <diagram name="第 1 页" id="H91dwD3ZRkst2pw-fFcp">
    <mxGraphModel dx="2261" dy="786" grid="1" gridSize="10" guides="1" tooltips="1" connect="1" arrows="1" fold="1" page="1" pageScale="1" pageWidth="827" pageHeight="1169" math="0" shadow="0">
      <root>
        <mxCell id="0" />
        <mxCell id="1" parent="0" />
        <mxCell id="4lSMt_tMTiDqCNiLHa6Z-1" value="内部资源对象类型" style="rounded=1;whiteSpace=wrap;html=1;" vertex="1" parent="1">
          <mxGeometry x="210" y="160" width="120" height="60" as="geometry" />
        </mxCell>
        <mxCell id="4lSMt_tMTiDqCNiLHa6Z-2" value="valume类型" style="rounded=1;whiteSpace=wrap;html=1;" vertex="1" parent="1">
          <mxGeometry x="-90" y="380" width="120" height="60" as="geometry" />
        </mxCell>
        <mxCell id="4lSMt_tMTiDqCNiLHa6Z-3" value="开源共享存储类型" style="rounded=1;whiteSpace=wrap;html=1;" vertex="1" parent="1">
          <mxGeometry x="210" y="370" width="120" height="60" as="geometry" />
        </mxCell>
        <mxCell id="4lSMt_tMTiDqCNiLHa6Z-4" value="硬件存储设备" style="rounded=1;whiteSpace=wrap;html=1;" vertex="1" parent="1">
          <mxGeometry x="210" y="490" width="120" height="60" as="geometry" />
        </mxCell>
        <mxCell id="4lSMt_tMTiDqCNiLHa6Z-5" value="公有云存储" style="rounded=1;whiteSpace=wrap;html=1;" vertex="1" parent="1">
          <mxGeometry x="210" y="600" width="120" height="60" as="geometry" />
        </mxCell>
        <mxCell id="4lSMt_tMTiDqCNiLHa6Z-6" value="configmap、secret、Download API、ServiceAccountToken" style="rounded=1;whiteSpace=wrap;html=1;" vertex="1" parent="1">
          <mxGeometry x="410" y="160" width="290" height="60" as="geometry" />
        </mxCell>
        <mxCell id="4lSMt_tMTiDqCNiLHa6Z-7" value="本地存储卷" style="rounded=1;whiteSpace=wrap;html=1;" vertex="1" parent="1">
          <mxGeometry x="210" y="260" width="120" height="60" as="geometry" />
        </mxCell>
        <mxCell id="4lSMt_tMTiDqCNiLHa6Z-8" value="emptyDir、HostPath、Local" style="rounded=1;whiteSpace=wrap;html=1;" vertex="1" parent="1">
          <mxGeometry x="410" y="260" width="290" height="60" as="geometry" />
        </mxCell>
      </root>
    </mxGraphModel>
  </diagram>
</mxfile>
